<svg xmlns="http://www.w3.org/2000/svg" version="1.1" xmlns:xlink="http://www.w3.org/1999/xlink" xmlns:svgjs="http://svgjs.dev/svgjs" width="2000" height="1500" viewBox="0 0 2000 1500"><rect width="2000" height="1500" fill="#8dbdff"></rect><g transform="matrix(0.4444444444444444,0,0,0.4444444444444444,555.5555555555557,250)"><svg viewBox="0 0 320 360" data-background-color="#8dbdff" preserveAspectRatio="xMidYMid meet" height="2250" width="2000" xmlns="http://www.w3.org/2000/svg" xmlns:xlink="http://www.w3.org/1999/xlink"><g id="tight-bounds" transform="matrix(1,0,0,1,0,0)"><svg viewBox="0 0 320 360" height="360" width="320"><g><svg></svg></g><g><svg viewBox="0 0 320 360" height="360" width="320"><g><path xmlns="http://www.w3.org/2000/svg" d="M20.961 227.22l3.726 4.658-1.863-6.056c-0.466-2.795-3.726 0.466-1.863 1.398M25.153 224.425c1.397 2.329 2.795 4.658 2.795 6.987 0 3.261 2.795 4.658 5.123 5.589-3.261-3.726-5.124-13.974-7.918-12.576M204.017 26.929c7.918 0 15.371-0.932 23.756 0.931 20.495 5.124 37.729 15.371 49.374 29.811l32.606 52.169c1.397 13.042 4.192 27.482 3.726 43.319 3.261 0 2.795-4.658 6.521-5.59-3.726 9.316-5.59 20.961-6.521 34.469-2.329-7.453 0-18.632 0.466-24.687-3.261 5.124-5.124 1.397-5.124-0.932 0.466-3.726-1.397-3.261-2.795-4.658-5.124-4.658-8.384-9.782-12.11-17.7 2.329-6.055 2.795-14.905-4.658-19.563-2.329-1.397-5.124-3.726-6.521-7.453-1.863-5.124-5.124-11.179-4.193-19.097 0.466-2.329-6.987 5.124-11.179 1.863-18.166-12.576-36.332-27.016-58.224-39.127-11.645 0-20.029-4.192-24.221-9.316-3.726-4.658-0.932-10.713 4.658-11.179 3.261 0 6.987-0.932 9.782 0.932 0.466-1.863 2.329-4.192 4.657-4.192M157.904 16.215l0.932 0.466c4.658 0.932 6.987 7.453 12.11 5.124 0 3.261 0.466 6.521-0.466 8.85-1.397 3.726-5.59 3.726-8.85 3.726-31.208-1.863-49.374 11.179-68.471 22.358-5.124 3.261-10.713 5.59-14.906 9.782-20.029 18.632-41.921 35.866-47.045 70.335l-4.192 38.195c-0.466 4.192-5.124 8.384-4.192 13.508l3.26 22.824c-3.261-3.261-5.124 0.932-4.192 2.795 0.466 1.397 2.329 6.055 5.124 1.863 3.726 6.987 7.453 20.495 12.576 26.55 15.837 18.632 36.332 35.4 53.101 52.169 4.192-0.932 7.453-0.932 8.384-3.727 1.397 2.795-1.397 5.59-3.726 6.056 7.453 4.658 15.837 8.85 27.016 9.781 14.44 0.932 27.948 3.261 40.524 6.522 6.521-1.863 13.042-2.795 20.029-3.261 2.329 0 3.726-3.726 6.521-4.658l0.466-4.658c2.795 4.192 2.329-1.397 0.466-4.192 3.261 2.795 4.192 5.124 5.589 6.987 0-1.397 3.726-6.521 3.727-0.466l0.931-6.055c1.397-0.932 1.863 5.124 3.261 0.931 1.397-4.192 4.192-0.932 6.987-2.329-0.932 1.863-0.466 5.59 2.794 3.261l3.727-3.261c2.329 5.59 6.055 3.261 7.918 2.329 20.495-13.042 40.99-28.413 60.553-43.784l-0.466 6.055 2.329-7.453c2.329 2.329 4.192 0.466 5.124-0.931 2.795-4.658 6.521-9.316 12.577-13.508-7.453 20.029-16.303 35.866-27.482 48.908l-4.658 5.59c0 3.261-0.932 7.453-4.658 7.918-1.863 0.466-5.59-0.932-8.384 1.863-1.397 1.863 3.261 5.59-0.466 2.795-3.261-2.329-6.521 0-10.248 0.932-2.795 0.932 1.863 3.726 2.795 5.589 0.932 1.863 1.863 3.726 1.398 6.056l-5.124-5.59c-6.055 3.261-9.782 9.316-14.906 13.974-2.329 1.863-1.397 5.124-1.397 7.918-3.261 0-6.987-0.932-8.85 0.932-1.397 1.863-0.932 4.658-0.932 7.453-4.658-0.466-5.124-7.453-9.315-6.056-4.192 0.932-8.85 1.397-12.577 3.727 2.795 5.59-4.658 2.329-3.726 3.26-6.987-4.192-13.042-7.453-20.495-4.658-15.837-5.124-35.4-2.795-49.84-0.931 0-2.329 0.466-4.658-0.466-5.124-0.932 2.329-3.726 1.397-3.26 1.397-8.85-6.055-17.7-9.782-27.016-14.905-8.384 0.932-16.303-3.261-18.632-5.59-6.521-6.055-13.974-2.795-20.029-4.192-13.042-3.261-17.7-16.769-19.098-26.084-0.932-4.658-4.658-6.521-6.055-6.056-6.055-19.563-15.371-37.263-22.824-55.429-1.863-4.658-1.397-9.316-1.397-14.44 2.329 0.932 4.658 0.466 4.192-2.794-2.329-15.371-7.918-27.016-13.974-38.195 3.261-15.837 3.726-34.469 11.179-48.443 6.521-12.576 18.632-19.098 27.016-29.811 2.795-3.726 2.795-8.85 5.59-12.11 9.316-9.316 18.632-19.098 28.879-27.482 4.658-3.726 10.247 0 17.234-1.397 2.329-8.384 11.645-15.837 20.495-13.508 3.726 0.932 11.179-8.85 13.508-9.782 3.726-1.397 1.863 3.726 1.863 6.987 8.85-6.987 20.961-10.713 32.14-14.906" fill="#374151" fill-rule="nonzero" stroke="none" stroke-width="1" stroke-linecap="butt" stroke-linejoin="miter" stroke-miterlimit="10" stroke-dasharray="" stroke-dashoffset="0" font-family="none" font-weight="none" font-size="none" text-anchor="none" style="mix-blend-mode: normal" data-fill-palette-color="tertiary"></path></g><g transform="matrix(1,0,0,1,64,131.85585517874046)"><svg viewBox="0 0 192 96.28828964251909" height="96.28828964251909" width="192"><g><svg viewBox="0 0 192 96.28828964251909" height="96.28828964251909" width="192"><g><svg viewBox="0 0 192 96.28828964251909" height="96.28828964251909" width="192"><g><svg viewBox="0 0 192 96.28828964251909" height="96.28828964251909" width="192"><g id="textblocktransform"><svg viewBox="0 0 192 96.28828964251909" height="96.28828964251909" width="192" id="textblock"><g><svg viewBox="0 0 192 54.58755005460502" height="54.58755005460502" width="192"><g transform="matrix(1,0,0,1,0,0)"><svg width="192" viewBox="-0.550000011920929 -38.5 137.33999633789062 39.04999923706055" height="54.58755005460502" data-palette-color="#374151"><path d="M35-30L41.7-7.55 49.5-29.25Q50.2-31.2 50.5-32.35 50.8-33.5 50.8-34.35L50.8-34.35Q50.8-35.65 49.98-36.13 49.15-36.6 47.05-36.6L47.05-36.6 47.05-38.5 59.2-38.5 59.2-36.6Q56.9-36.6 55.73-35.65 54.55-34.7 53.75-32.55L53.75-32.55 41.2 0.5 39.45 0.5 29.85-27.95 19.2 0.5 17.45 0.5 7.05-28.2Q6.15-30.6 5.43-32.23 4.7-33.85 3.88-34.8 3.05-35.75 2-36.15 0.95-36.55-0.55-36.55L-0.55-36.55-0.55-38.5 15.75-38.5 15.75-36.55Q13.2-36.55 12.18-36.1 11.15-35.65 11.15-34.35L11.15-34.35Q11.15-33.7 11.35-32.85 11.55-32 11.95-30.85L11.95-30.85 19.55-7.7 25.7-25Q26.4-26.95 27.08-28.63 27.75-30.3 28.15-31.65L28.15-31.65Q27.45-33.1 26.88-34.05 26.3-35 25.73-35.55 25.15-36.1 24.53-36.33 23.9-36.55 23.2-36.55L23.2-36.55 23.2-38.5 38.5-38.5 38.5-36.55Q37.05-36.55 36.15-36.45 35.25-36.35 34.77-36.13 34.3-35.9 34.13-35.5 33.95-35.1 33.95-34.55L33.95-34.55Q33.95-33.8 34.23-32.73 34.5-31.65 35-30L35-30ZM71.85-10.85L71.85-14.8Q69-13.7 67.02-12.65 65.05-11.6 63.85-10.55 62.65-9.5 62.12-8.45 61.6-7.4 61.6-6.3L61.6-6.3Q61.6-4.65 62.7-3.6 63.8-2.55 65.6-2.55L65.6-2.55Q66.9-2.55 68.02-3.2 69.15-3.85 70-4.98 70.85-6.1 71.35-7.63 71.85-9.15 71.85-10.85L71.85-10.85ZM64.65-13.8L71.85-16.95 71.85-19Q71.85-25.1 66.65-25.1L66.65-25.1Q65.8-25.1 65.2-24.95 64.6-24.8 64.2-24.45 63.8-24.1 63.47-23.45 63.15-22.8 62.85-21.85L62.85-21.85Q62.3-20.4 61.77-19.93 61.25-19.45 60.25-19.45L60.25-19.45Q57.75-19.45 57.75-21.95L57.75-21.95Q57.75-24.35 60.3-25.68 62.85-27 67.55-27L67.55-27Q72.55-27 74.65-25.23 76.75-23.45 76.75-19.2L76.75-19.2 76.75-8Q76.75-2.3 79-2.3L79-2.3Q79.7-2.3 80.35-2.48 81-2.65 81.45-3.4L81.45-3.4 82.15-2.2Q81.55-1.05 79.95-0.28 78.35 0.5 76.6 0.5L76.6 0.5Q74.4 0.5 73.32-0.9 72.25-2.3 72.25-4.85L72.25-4.85 72-4.85Q70.7-2.4 68.4-0.98 66.1 0.45 63.3 0.45L63.3 0.45Q60.15 0.45 58.35-1.15 56.55-2.75 56.55-5.45L56.55-5.45Q56.55-6.65 56.97-7.75 57.4-8.85 58.35-9.85 59.3-10.85 60.85-11.83 62.4-12.8 64.65-13.8L64.65-13.8ZM94.75 0.55L86.3-20.3Q85.7-21.8 85.22-22.68 84.75-23.55 84.2-24 83.65-24.45 82.97-24.58 82.3-24.7 81.35-24.75L81.35-24.75 81.35-26.5 94.6-26.5 94.6-24.75Q93.6-24.7 92.95-24.65 92.3-24.6 91.92-24.43 91.55-24.25 91.4-23.93 91.25-23.6 91.25-23L91.25-23Q91.25-22.15 91.47-21.4 91.7-20.65 91.95-19.9L91.95-19.9 97.25-5.4 97.45-5.4 102-16.15Q103.05-18.65 103.5-20.15 103.95-21.65 103.95-22.8L103.95-22.8Q103.95-23.95 103.35-24.35 102.75-24.75 100.75-24.75L100.75-24.75 100.75-26.5 110.7-26.5 110.7-24.75Q109.9-24.75 109.25-24.35 108.6-23.95 108.1-23.35L108.1-23.35Q107.7-22.8 107.27-21.88 106.85-20.95 106.42-19.95 106-18.95 105.65-17.98 105.3-17 105-16.4L105-16.4 97.65 0.55 94.75 0.55ZM135.04-6.05L136.59-4.65Q132.34 0.5 126.04 0.5L126.04 0.5Q123.09 0.5 120.69-0.48 118.29-1.45 116.57-3.23 114.84-5 113.89-7.48 112.94-9.95 112.94-12.95L112.94-12.95Q112.94-16 113.94-18.6 114.94-21.2 116.77-23.05 118.59-24.9 121.12-25.95 123.64-27 126.64-27L126.64-27Q131.49-27 134.14-24.38 136.79-21.75 136.79-16.85L136.79-16.85Q136.79-16.15 136.52-16 136.24-15.85 135.24-15.85L135.24-15.85 118.79-15.85Q118.69-15.45 118.64-14.88 118.59-14.3 118.59-13.6L118.59-13.6Q118.59-11 119.22-8.88 119.84-6.75 121.02-5.25 122.19-3.75 123.82-2.93 125.44-2.1 127.44-2.1L127.44-2.1Q129.54-2.1 131.34-3.03 133.14-3.95 135.04-6.05L135.04-6.05ZM119.14-18.15L128.34-18.15Q129.34-18.15 129.94-18.2 130.54-18.25 130.84-18.4 131.14-18.55 131.24-18.82 131.34-19.1 131.34-19.55L131.34-19.55Q131.34-21.85 129.87-23.23 128.39-24.6 125.84-24.6L125.84-24.6Q120.44-24.6 119.14-18.15L119.14-18.15Z" opacity="1" transform="matrix(1,0,0,1,0,0)" fill="#374151" class="wordmark-text-0" data-fill-palette-color="primary" id="text-0"></path></svg></g></svg></g><g transform="matrix(1,0,0,1,0,62.5531837087732)"><svg viewBox="0 0 192 33.7351059337459" height="33.7351059337459" width="192"><g transform="matrix(1,0,0,1,0,0)"><svg width="192" viewBox="0.6000000238418579 -37.150001525878906 214.5699920654297 37.70000076293945" height="33.7351059337459" data-palette-color="#374151"><path d="M0.6-34.25L20.1-34.25 19.75-31.75 11.7-31.75 11.7 0 8.8 0 8.8-31.75 0.6-31.75 0.6-34.25ZM84.79-14.05Q84.79-12.95 84.69-11.95L84.69-11.95 70.39-11.95Q70.59-6.55 72.26-4.2 73.94-1.85 76.84-1.85L76.84-1.85Q78.54-1.85 79.84-2.43 81.14-3 82.54-4.25L82.54-4.25 83.94-2.6Q82.39-1.05 80.66-0.25 78.94 0.55 76.79 0.55L76.79 0.55Q72.44 0.55 69.96-2.88 67.49-6.3 67.49-12.85L67.49-12.85Q67.49-19.5 69.86-23.1 72.24-26.7 76.39-26.7L76.39-26.7Q80.49-26.7 82.64-23.48 84.79-20.25 84.79-14.05L84.79-14.05ZM82.04-14.15L82.04-14.95Q82.04-19.65 80.64-22 79.24-24.35 76.39-24.35L76.39-24.35Q70.74-24.35 70.39-14.15L70.39-14.15 82.04-14.15ZM143.48-26.7Q145.28-26.7 146.73-26.08 148.18-25.45 149.58-24.05L149.58-24.05 148.23-22.35Q147.13-23.35 146-23.83 144.88-24.3 143.53-24.3L143.53-24.3Q140.53-24.3 138.83-21.55 137.13-18.8 137.13-12.95L137.13-12.95Q137.13-1.9 143.48-1.9L143.48-1.9Q146.03-1.9 148.33-3.95L148.33-3.95 149.73-2.25Q146.93 0.55 143.48 0.55L143.48 0.55Q139.08 0.55 136.6-2.83 134.13-6.2 134.13-12.9L134.13-12.9Q134.13-19.55 136.63-23.13 139.13-26.7 143.48-26.7L143.48-26.7ZM209.17-26.7Q212.02-26.7 213.59-24.68 215.17-22.65 215.17-19.15L215.17-19.15 215.17 0 212.37 0 212.37-18.8Q212.37-24.4 208.62-24.4L208.62-24.4Q205.07-24.4 202.17-18.75L202.17-18.75 202.17 0 199.37 0 199.37-36.8 202.17-37.15 202.17-21.75Q203.62-24.15 205.27-25.43 206.92-26.7 209.17-26.7L209.17-26.7Z" opacity="1" transform="matrix(1,0,0,1,0,0)" fill="#374151" class="slogan-text-1" data-fill-palette-color="secondary" id="text-1"></path></svg></g></svg></g></svg></g></svg></g><g></g></svg></g></svg></g></svg></g></svg></g><defs></defs></svg><rect width="320" height="360" fill="none" stroke="none" visibility="hidden"></rect></g></svg></g></svg>